<svg xmlns="http://www.w3.org/2000/svg">

    <symbol id="arrow" viewBox="0 0 18 10">
        <path d="M0.999023 1.19922L8.99904 9.19922L16.9991 1.19922" stroke-width="1.5" stroke-linecap="round" stroke-linejoin="round"/>
    </symbol>

    <symbol id="phone" viewBox="0 0 10 17">
        <path d="M8.28 0H1.656C1.2168 0 0.795591 0.174471 0.485031 0.485031C0.174471 0.795591 0 1.2168 0 1.656V14.904C0 15.3432 0.174471 15.7644 0.485031 16.075C0.795591 16.3855 1.2168 16.56 1.656 16.56H8.28C8.7192 16.56 9.14041 16.3855 9.45097 16.075C9.76153 15.7644 9.936 15.3432 9.936 14.904V1.656C9.936 1.2168 9.76153 0.795591 9.45097 0.485031C9.14041 0.174471 8.7192 0 8.28 0ZM5.796 15.732H4.14V14.904H5.796V15.732ZM8.28 14.076H1.656V2.484H8.28V14.076Z" fill="#BEC2EA"/>
    </symbol>

    <symbol id="marker" viewBox="0 0 14 17">
        <path d="M11.9571 2.05151C10.6435 0.737949 8.86194 -1.38406e-08 7.00429 0C5.14663 1.38406e-08 3.36507 0.737949 2.05151 2.05151C0.737949 3.36507 1.38406e-08 5.14663 0 7.00429C-1.38406e-08 8.86194 0.737949 10.6435 2.05151 11.9571L6.4017 16.3155C6.47844 16.3929 6.56973 16.4543 6.67032 16.4962C6.77091 16.5381 6.87881 16.5597 6.98778 16.5597C7.09675 16.5597 7.20464 16.5381 7.30523 16.4962C7.40582 16.4543 7.49712 16.3929 7.57385 16.3155L11.9571 11.9158C13.2651 10.6077 14 8.83356 14 6.98365C14 5.13374 13.2651 3.3596 11.9571 2.05151ZM10.7767 10.7354L7.00429 14.5243L3.23192 10.7354C2.48665 9.98942 1.97926 9.03926 1.7739 8.00499C1.56854 6.97072 1.67443 5.89878 2.07817 4.92468C2.48192 3.95058 3.1654 3.11805 4.04222 2.53232C4.91904 1.9466 5.94983 1.63397 7.00429 1.63397C8.05875 1.63397 9.08953 1.9466 9.96635 2.53232C10.8432 3.11805 11.5267 3.95058 11.9304 4.92468C12.3341 5.89878 12.44 6.97072 12.2347 8.00499C12.0293 9.03926 11.5219 9.98942 10.7767 10.7354ZM4.5279 4.47011C3.86151 5.13855 3.48731 6.04391 3.48731 6.98778C3.48731 7.93164 3.86151 8.837 4.5279 9.50544C5.02298 10.0014 5.65349 10.34 6.34032 10.479C7.02716 10.6179 7.73973 10.551 8.38865 10.2865C9.03756 10.022 9.59391 9.57171 9.98791 8.99221C10.3819 8.41271 10.596 7.72976 10.6033 7.02905C10.607 6.56118 10.5169 6.09732 10.3383 5.66488C10.1596 5.23244 9.89607 4.84022 9.56322 4.51139C9.23607 4.17673 8.84596 3.91007 8.41535 3.72676C7.98474 3.54344 7.52213 3.4471 7.05414 3.44326C6.58616 3.43943 6.12203 3.52818 5.68847 3.70441C5.25492 3.88063 4.86049 4.14086 4.5279 4.47011ZM8.39932 8.33328C8.0865 8.65087 7.67309 8.84994 7.22974 8.89646C6.7864 8.94297 6.34067 8.83404 5.96875 8.58829C5.59683 8.34254 5.32183 7.97523 5.19075 7.54916C5.05967 7.12309 5.08067 6.66472 5.25014 6.25242C5.41962 5.84011 5.72705 5.49948 6.11987 5.28876C6.5127 5.07803 6.96652 5.0103 7.40376 5.09715C7.84099 5.184 8.23448 5.42002 8.51696 5.76488C8.79943 6.10973 8.95334 6.542 8.95238 6.98778C8.94037 7.49731 8.72661 7.98124 8.35805 8.33328H8.39932Z" fill="#BEC2EA"/>
    </symbol>

    <symbol id="mail" viewBox="0 0 14 14">
        <path d="M12.0291 0.177059L0.655011 6.73689C-0.285542 7.28104 -0.195314 8.67285 0.810858 9.08574L3.93601 10.3791V12.6869C3.93601 13.9557 5.55463 14.478 6.30379 13.469L7.50136 11.853L10.5609 13.1162C10.7222 13.1819 10.8917 13.2147 11.0612 13.2147C11.2854 13.2147 11.5069 13.1573 11.7065 13.0452C12.0565 12.8483 12.2971 12.4983 12.36 12.1018L13.9841 1.51418C14.1508 0.417687 12.9752 -0.367087 12.0291 0.177059ZM5.24841 12.6869V10.9205L6.24911 11.3334L5.24841 12.6869ZM11.0612 11.9022L6.8561 10.1658L10.6894 4.63413C10.9819 4.2103 10.4296 3.71811 10.0414 4.05444L4.25864 9.09394L1.31121 7.8744L12.6853 1.31184L11.0612 11.9022Z" fill="#BEC2EA"/>
    </symbol>

    <symbol id="btn-arrow" viewBox="0 0 47 22">
        <path d="M35.4062 1.22266L45.5601 11.0004L35.4062 20.7782" stroke="white" stroke-width="2" stroke-linecap="round" stroke-linejoin="round"/>
        <path d="M43.1631 10.8633H1.56055" stroke="white" stroke-width="2" stroke-linecap="round"/>
    </symbol>

    <symbol id="letter-a" viewBox="0 0 487 418">
        <path d="M330.22 336.789H153.466L120.623 418H0L184.517 0H300.96L486.074 418H363.063L330.22 336.789ZM295.586 249.606L241.843 115.846L188.1 249.606H295.586Z" fill="white" fill-opacity="0.1"/>
    </symbol>

    <symbol id="letter-b" viewBox="0 0 398 419">
        <path d="M321.263 200.644C345.149 209.004 363.859 222.142 377.394 240.056C390.929 257.572 397.697 278.87 397.697 303.95C397.697 340.575 382.968 368.839 353.509 388.744C324.049 408.65 281.454 418.602 225.72 418.602H0V0.601562H213.777C267.122 0.601562 307.728 10.5539 335.594 30.4587C363.461 49.9654 377.394 76.4387 377.394 109.879C377.394 129.784 372.418 147.698 362.466 163.622C352.911 179.147 339.177 191.488 321.263 200.644ZM117.04 85.993V166.607H198.251C238.061 166.607 257.966 153.072 257.966 126.002C257.966 99.3292 238.061 85.993 198.251 85.993H117.04ZM216.166 333.21C257.568 333.21 278.269 319.078 278.269 290.813C278.269 262.548 257.568 248.416 216.166 248.416H117.04V333.21H216.166Z" fill="white" fill-opacity="0.1"/>
    </symbol>

    <symbol id="letter-m" viewBox="0 0 487 418">
        <path d="M377.394 418L376.2 196.46L268.714 376.797H216.166L109.277 202.431V418H0V0H97.3343L244.231 241.246L387.546 0H484.88L486.074 418H377.394Z" fill="white" fill-opacity="0.1"/>
    </symbol>

    <symbol id="burger" viewBox="0 0 21 14">
        <path d="M1.5332 13H19.5332M1.5332 1H19.5332H1.5332ZM1.5332 7H19.5332H1.5332Z" stroke="black" stroke-width="1.5" stroke-linecap="round" stroke-linejoin="round"/>
    </symbol>

    <symbol id="close" viewBox="0 0 30 30">
        <path d="M22.5967 7.74609L7.74744 22.5953" stroke-width="1.5" stroke-linecap="round" stroke-linejoin="round"/>
        <path d="M21.9512 22.5977L7.10193 7.74841" stroke-width="1.5" stroke-linecap="round" stroke-linejoin="round"/>
    </symbol>

    <symbol id="after" viewBox="0 0 1252 1608">
        <path d="M77.3748 680.445L1252 0V1608L79.0417 947.908C-24.8426 889.447 -25.7728 740.197 77.3748 680.445Z"/>
    </symbol>

    <symbol id="automatiom-offer-svg" viewBox="0 0 1049 1327">
        <path fill-rule="evenodd" clip-rule="evenodd" d="M1015.3 702.742C1064.84 663.965 1058.54 587.028 1003.33 556.405L0.139088 0H0V1327H217.839L1015.3 702.742Z" fill="#F7F8FF"/>
    </symbol>

    <symbol id="virtualisation-offer-svg" viewBox="0 0 1208 1340">
        <path fill-rule="evenodd" clip-rule="evenodd" d="M0 0.147461L1131.38 659.621C1233.56 719.178 1233.25 866.904 1130.83 926.036L413.822 1340H0V0.147461Z" fill="#F7F8FF"/>
    </symbol>

    <symbol id="mob-svg" viewBox="0 0 206 124">
        <path fill="white" d="M0,0h206L0,124V0z"/>
    </symbol>

    <symbol id="yt-btn" viewBox="0 0 73 73">
        <path d="M36.3472 68.1445C27.9928 68.1445 19.9807 64.8258 14.0733 58.9184C8.16591 53.011 4.84717 44.9989 4.84717 36.6445C4.84717 28.2902 8.16591 20.2781 14.0733 14.3707C19.9807 8.46327 27.9928 5.14453 36.3472 5.14453C44.7015 5.14453 52.7136 8.46327 58.621 14.3707C64.5284 20.2781 67.8472 28.2902 67.8472 36.6445C67.8472 44.9989 64.5284 53.011 58.621 58.9184C52.7136 64.8258 44.7015 68.1445 36.3472 68.1445ZM36.3472 72.6445C45.895 72.6445 55.0517 68.8517 61.803 62.1004C68.5543 55.3491 72.3472 46.1923 72.3472 36.6445C72.3472 27.0967 68.5543 17.94 61.803 11.1887C55.0517 4.43738 45.895 0.644531 36.3472 0.644531C26.7994 0.644531 17.6426 4.43738 10.8913 11.1887C4.14001 17.94 0.347168 27.0967 0.347168 36.6445C0.347168 46.1923 4.14001 55.3491 10.8913 62.1004C17.6426 68.8517 26.7994 72.6445 36.3472 72.6445Z" fill="white" fill-opacity="0.87"/>
        <path d="M28.5667 23.3903C28.9347 23.2007 29.3479 23.1164 29.7607 23.1466C30.1736 23.1768 30.5701 23.3203 30.9067 23.5613L46.6567 34.8113C46.9483 35.0194 47.1861 35.2942 47.3501 35.6127C47.5141 35.9313 47.5997 36.2844 47.5997 36.6428C47.5997 37.0011 47.5141 37.3542 47.3501 37.6728C47.1861 37.9913 46.9483 38.2661 46.6567 38.4743L30.9067 49.7243C30.5702 49.9651 30.1739 50.1084 29.7612 50.1386C29.3486 50.1688 28.9356 50.0846 28.5677 49.8953C28.1998 49.706 27.8913 49.4189 27.6759 49.0656C27.4606 48.7123 27.3468 48.3065 27.3472 47.8928V25.3928C27.3467 24.9791 27.4603 24.5734 27.6755 24.2201C27.8906 23.8668 28.199 23.5797 28.5667 23.3903Z" fill="white" fill-opacity="0.87"/>
    </symbol>

    <symbol id="left-arrow" viewBox="0 0 11 20">
        <path d="M9.90356 19L0.999933 10.0964L9.90357 1.19274" stroke-width="2" stroke-linecap="round" stroke-linejoin="round"/>
    </symbol>

    <symbol id="right-arrow" viewBox="0 0 12 20">
        <path d="M1.40356 1L10.3851 9.98149L1.40356 18.963" stroke-width="2" stroke-linecap="round" stroke-linejoin="round"/>
    </symbol>

    <symbol id="close-modal" viewBox="0 0 37 37">
        <path d="M27.3892 9.39062L9.38916 27.3906" stroke="black" stroke-width="1.5" stroke-linecap="round" stroke-linejoin="round"/>
        <path d="M27.3892 27.3906L9.38916 9.39062" stroke="black" stroke-width="1.5" stroke-linecap="round" stroke-linejoin="round"/>
    </symbol>

    <symbol id="open-svg-arrow" viewBox="0 0 10 19">
        <path d="M1 1.27344L9 9.27344L1 17.2734" stroke="white" stroke-width="2" stroke-linecap="round" stroke-linejoin="round"/>
    </symbol>

    <symbol id="open-svg-info-slide" viewBox="0 0 3 17">
        <path d="M1.5 16V5.375V16Z" fill="#4425C1"/>
        <path d="M1.5 16V5.375" stroke="white" stroke-width="2" stroke-linecap="round" stroke-linejoin="round"/>
        <path d="M1.5 1H1.5125H1.5Z" fill="#4425C1"/>
        <path d="M1.5 1H1.5125" stroke="white" stroke-width="2" stroke-linecap="round" stroke-linejoin="round"/>
    </symbol>

</svg>