<svg id="Слой_1" data-name="Слой 1" xmlns="http://www.w3.org/2000/svg" xmlns:xlink="http://www.w3.org/1999/xlink" viewBox="0 0 32 32"><defs><style>.cls-1{fill:#fff;}.cls-2{fill:url(#Безымянный_градиент_2);}.cls-3{fill:#44aee4;}.cls-3,.cls-5,.cls-6{fill-rule:evenodd;}.cls-4{fill:url(#Безымянный_градиент_2-2);}.cls-5{fill:#3d2f88;}.cls-6{fill:#e42018;}</style><linearGradient id="Безымянный_градиент_2" x1="7.49" y1="28.42" x2="27.53" y2="18.93" gradientTransform="matrix(1, 0, 0, -1, 0, 34)" gradientUnits="userSpaceOnUse"><stop offset="0" stop-color="#afdbf6"/><stop offset="0.09" stop-color="#9fb2db"/><stop offset="0.22" stop-color="#8b7fba"/><stop offset="0.33" stop-color="#7c59a2"/><stop offset="0.42" stop-color="#734293"/><stop offset="0.48" stop-color="#703a8e"/><stop offset="0.63" stop-color="#643e91"/><stop offset="0.9" stop-color="#434899"/><stop offset="1" stop-color="#364c9c"/></linearGradient><linearGradient id="Безымянный_градиент_2-2" x1="4.18" y1="9.77" x2="27.88" y2="9.77" xlink:href="#Безымянный_градиент_2"/></defs><circle class="cls-1" cx="16" cy="16" r="16"/><path class="cls-2" d="M3.71,11.51c1.83-1.95,5.48-4,9.48-2.09l4.14,2a54.19,54.19,0,0,0,6,2.5c4.22,1.42,5.86-1.09,5.86-1.09a13.27,13.27,0,0,0-13-9.35A13.39,13.39,0,0,0,3.71,11.51Z"/><path class="cls-3" d="M3.71,11.5c-.34.77.69,1.59,1.53,1.82,4.26,1.17,8.79-.61,12-2-1.35-.65-2.6-1.28-4-1.95C9.19,7.49,5.54,9.55,3.71,11.5Z"/><path class="cls-4" d="M27.88,22.09A13.27,13.27,0,0,1,16.2,28.5a13.48,13.48,0,0,1-12-7c6.1,4.5,11.49,1.77,17.56-.89C26.39,18.53,27.88,22.09,27.88,22.09Z"/><path class="cls-3" d="M13.12,23.7a11,11,0,0,1-8.94-2.21C6.8,18.05,11.07,22.11,13.12,23.7Z"/><path class="cls-5" d="M12.22,18.85h1.35l-2.06-3.66H7.27c-1.49,0-2.12.8-2.12,1.88A1.79,1.79,0,0,0,7.1,18.84h4.35L10.7,17.6H7.24s-.78.07-.78-.59.78-.56.8-.56h3.57Z"/><path class="cls-5" d="M21.87,18.87h1.59L24.87,16s.29-.81-.7-.81H20.4c-.86,0-1.36.06-1.81.82L17,18.87h1.54l1-1.84c.32-.54.34-.59.78-.59h.35l-1.14,2.42h1.54L22,17c.16-.29.24-.61.78-.61a2,2,0,0,1,.35,0Z"/><polygon class="cls-6" points="12.25 15.05 12.95 15.38 15.06 18.85 15.61 18.85 18.16 15.4 19.25 14.89 18.06 14.89 17.96 14.89 15.41 17.15 13.24 14.85 11.8 14.83 12.25 15.05"/><path class="cls-6" d="M15.69,14.37a.76.76,0,0,0-.73.77.75.75,0,0,0,1.5,0,.77.77,0,0,0-.77-.75Z"/></svg>