<svg width="204" height="249" viewBox="0 0 204 249" fill="none" xmlns="http://www.w3.org/2000/svg">
<path d="M73.5951 302.444C76.7178 296.343 80.0473 290.356 83.0006 284.16C93.7041 261.086 86.1985 244.132 61.1987 234.61C58.6592 233.66 56.0256 232.918 55.5553 232.709L66.3153 207.184L64.152 205.91C61.7066 210.168 59.073 214.33 56.8533 218.721C51.0407 230.124 46.2251 232.5 34.2801 228.338C24.6676 224.993 15.2998 220.906 5.51802 216.934C13.0424 213.133 19.9649 211.061 25.1755 206.766C30.7248 202.166 34.5811 195.514 39.8858 188.937C36.9324 189.793 33.8474 190.059 31.4772 191.484C27.8115 193.886 24.3281 196.561 21.0559 199.486C4.12601 213.456 -2.90931 213.342 -18.0334 197.909C-23.6446 191.965 -28.7128 185.521 -33.1762 178.655C-18.5977 183.007 -7.38633 173.884 5.10419 170.786C11.5376 169.171 18.2719 168.334 25.0251 165.084C20.2094 164.704 15.1493 163.184 10.6158 164.153C0.796463 166.187 -8.72192 169.551 -18.3155 172.193C-33.1762 176.241 -37.9166 173.789 -42.5818 158.983C-44.7638 152.426 -46.137 145.622 -47.6984 138.988C-47.8782 136.73 -47.8782 134.461 -47.6984 132.203C-36.4117 144.747 -23.15 139.996 -10.8476 140.794C-1.66778 141.364 7.512 142.106 16.8423 142.695C13.0801 135.662 5.85662 134.826 -1.15989 134.37C-10.208 133.781 -19.3125 134.161 -28.3606 133.648C-44.6886 132.697 -51.1596 124.677 -46.9271 108.939C-43.6352 96.471 -38.3305 84.63 -33.9099 72.4659L-31.803 73.6062C-30.4487 78.9661 -30.2794 85.1242 -27.4013 89.4766C-24.5232 93.8291 -18.9551 96.7561 -14.4028 100.044C-5.56167 106.43 3.41119 112.665 12.3276 118.937L14.7919 117.473C12.4405 113.463 10.8227 108.654 7.58724 105.594C0.0628319 98.5617 -8.36451 92.4607 -16.2651 85.8084C-28.2478 75.735 -28.9061 65.6616 -18.0334 54.9609C-12.2396 49.259 -5.88145 44.1082 0.269753 38.7674C0.890518 38.2162 1.84988 38.0452 0.815269 38.4823L17.1244 73.7963C21.5638 64.7873 20.3975 57.2987 14.4156 49.468C5.38635 37.684 5.61208 35.1562 13.5127 22.954C19.156 14.097 23.9716 4.65081 29.7278 -5.55566C30.7648 -3.68787 31.6155 -1.72053 32.2673 0.317333C36.3305 22.1558 33.9603 43.348 26.8121 64.3501C17.6135 91.4723 14.9047 118.899 24.4231 146.591C30.7812 165.312 42.7639 179.966 57.1167 194.107C58.3456 192.872 59.6392 191.705 60.9917 190.61C67.9518 185.668 74.6485 188.918 75.3634 197.566C75.7396 202.223 75.9465 206.88 76.4544 211.517C76.4544 212.125 77.8276 212.601 79.8216 214.083C79.8216 208.799 79.9532 204.58 79.8216 200.284C79.5582 193.879 81.4017 188.291 88.437 188.158C95.4724 188.025 97.598 193.499 97.5604 199.923C97.4726 215.014 97.4162 230.118 97.3911 245.235C97.3911 253.673 97.3911 262.112 97.3911 270.551L100.194 271.273C101.17 268.395 101.838 265.419 102.188 262.397C102.357 241.623 101.925 220.849 102.602 200.094C102.715 196.122 106.176 189.945 109.43 188.88C116.559 186.562 119.061 192.055 119.043 198.707C119.043 217.903 119.043 237.113 119.043 256.334C131.89 253.483 139.547 244.436 139.547 232.272C139.547 224.67 138.775 217.067 139.716 209.635C141.183 198.042 135.013 190.819 125.852 187.892C109.446 182.937 92.7788 178.914 75.9277 175.842C66.1836 173.941 56.0821 173.77 44.6826 172.706H140.732V233.127C140.732 247.819 130.517 258.957 115.807 260.364C114.283 260.516 112.252 260.364 111.349 261.39C106.176 266.636 99.8929 271.445 96.7139 277.793C93.7605 283.685 94.2496 291.306 93.3279 297.407L77.3573 302.444H73.5951ZM115.431 190.534C106.27 196.236 105.743 201.938 107.775 255.992C107.959 256.861 108.263 257.699 108.678 258.482L117.256 256.277C116.014 234.42 118.854 212.829 115.431 190.534ZM93.0269 240.54V190.743C81.8908 197.528 82.4363 220.108 93.0269 240.54Z" fill="#EAECFB"/>
<path d="M40.8263 21.3762C49.3853 39.3753 65.5063 53.2501 82.06 67.2388C104.313 86.0552 105.235 119.279 85.7282 140.471C84.8579 141.342 83.8996 142.12 82.8689 142.789C86.9885 133.685 93.0269 123.935 95.7545 113.329C97.1078 107.789 97.276 102.021 96.2477 96.4099C95.2194 90.7987 93.0183 85.4738 89.7914 80.7904C89.7914 88.393 90.7131 95.4444 89.6409 102.249C85.8787 125.969 55.4801 147.503 31.4208 143.436C28.9565 143.018 25.9279 138.817 25.2884 135.833C21.3201 117.952 21.5068 99.3848 25.8339 81.5887C30.7812 61.2328 35.973 40.8388 40.8263 21.3762Z" fill="#EAECFB"/>
<path d="M55.8369 35.1177H203.184V62.8101H171.205C146.506 62.8101 121.788 62.2589 97.1082 63.0762C92.324 63.4336 87.5198 62.7404 83.0258 61.0442C78.5318 59.348 74.4544 56.689 71.0738 53.2498C65.4305 47.814 59.4674 42.9103 53.6548 37.7786L55.8369 35.1177Z" fill="#EAECFB"/>
<path d="M38.8131 164.19C50.2879 164.19 61.7626 164.19 73.2373 164.19C85.9159 164.076 90.0168 159.097 87.6466 146.001C105.498 146.001 123.218 145.659 140.901 146.172C147.503 146.362 152.864 151.38 151.642 157.804C150.833 162.1 145.114 168.638 141.484 168.714C108.452 169.436 75.4006 168.98 42.3496 168.714C41.1081 168.714 39.8666 167.345 38.5874 166.604L38.8131 164.19ZM116.728 166.091C119.889 166.243 121.958 166.433 124.027 166.395C129.934 166.395 136.047 166.946 141.691 165.578C144.437 164.894 147.334 160.693 148.124 157.576C148.613 155.485 145.885 151.323 143.609 150.316C141.728 149.498 138.286 151.684 135.934 153.167C129.877 157.063 124.046 161.225 116.728 166.186V166.091Z" fill="#EAECFB"/>
<path d="M96.9199 81.9688L97.9169 79.7831H164.564C164.038 91.6621 159.937 101.013 150.212 107.247C145.227 110.441 141.916 112.037 138.925 111.904C135.351 111.733 136.348 103.807 121.261 92.7645C114.207 87.5567 99.403 83.7364 96.9199 81.9688Z" fill="#EAECFB"/>
<path d="M176.812 75.9818H130.988C122.26 75.9818 113.457 75.3166 104.804 76.1529C96.1504 76.9892 90.9774 73.1689 87.4033 64.863H176.21C176.379 68.0941 176.568 71.3632 176.812 75.9818Z" fill="#EAECFB"/>
<path d="M29.9345 146.078C45.4348 146.078 60.9538 145.717 76.4165 146.401C79.2382 146.515 81.8905 150.83 84.6181 153.206C81.8717 155.581 79.2382 159.896 76.3601 159.896C63.968 160.98 51.5064 160.98 39.1143 159.896C34.9946 159.421 31.5898 153.016 27.8276 149.328L29.9345 146.078Z" fill="#EAECFB"/>
<path d="M129.878 143.455H89.7725C93.1773 136.955 95.7167 127.889 99.5918 121.712C100.589 120.115 108.339 123.384 116.729 129.884C121.675 133.813 126.095 138.375 129.878 143.455Z" fill="#EAECFB"/>
<path d="M116.559 94.2283C129.878 104.416 126.228 104.416 131.495 112.36H103.279C102.714 104.758 102.169 97.3834 101.529 88.9635C106.984 90.8641 108.565 88.9635 116.86 94.5514L116.559 94.2283Z" fill="#EAECFB"/>
<path d="M118.647 127.223C113.135 122.966 102.752 119.469 100.701 118.328L102.582 115.99H130.724V138.437C128.335 137.088 125.475 132.051 118.647 127.223Z" fill="#EAECFB"/>
<path d="M115.432 190.534C118.912 212.828 116.072 234.42 117.313 256.277L108.735 258.482C108.321 257.699 108.017 256.861 107.832 255.992C105.688 201.881 106.215 196.331 115.432 190.534Z" fill="#EAECFB"/>
<path d="M93.0267 240.54C82.4361 220.108 81.8906 197.528 93.0267 190.743V240.54Z" fill="#EAECFB"/>
<path d="M116.729 166.186C124.047 161.226 129.897 157.063 135.936 153.262C138.287 151.779 141.805 149.594 143.61 150.411C145.887 151.418 148.614 155.581 148.125 157.671C147.391 160.788 144.363 164.989 141.692 165.673C136.048 167.042 129.935 166.395 124.028 166.49C121.959 166.528 119.89 166.338 116.729 166.186Z" fill="#EAECFB"/>
</svg>
