<svg width="131" height="244" viewBox="0 0 131 244" fill="none" xmlns="http://www.w3.org/2000/svg">
<path d="M130.935 78.5325C130.935 86.071 129.409 96.8708 127.416 104.116C125.523 110.979 122.533 117.093 118.872 122.739C112.168 133.094 103.217 141.874 94.6538 150.793C80.8008 165.224 66.3821 179.065 52.2942 193.253C52.2942 193.253 11.094 151.95 7.94573 148.945C-10.4549 131.35 -26.3301 109.708 -26.3301 81.7986C-26.3301 36.9446 8.76054 0.577881 52.045 0.577881C73.6848 0.577881 93.2785 9.66594 107.458 24.3706L77.2309 55.6916C70.7856 49.0074 61.8777 44.8754 52.045 44.8754C32.3696 44.8754 16.4178 61.4127 16.4178 81.7986C16.4178 102.184 32.3696 118.722 52.045 118.722C71.7154 118.722 88.1869 98.9184 88.1869 78.5325H130.935Z" fill="#DEE1F9" fill-opacity="0.5"/>
<path d="M130.935 220.129H-26.3301V264.578H130.935V220.129Z" fill="#DEE1F9" fill-opacity="0.5"/>
</svg>
