<svg width="144" height="242" viewBox="0 0 144 242" fill="none" xmlns="http://www.w3.org/2000/svg">
<path d="M101.765 142.165C76.6886 164.814 39.3356 196.081 15.7744 204.423C-5.27976 211.161 -27.5233 212.655 -49.2145 208.787C-66.9864 190.894 -78.8381 167.426 -83.0157 141.857C-87.1932 116.288 -83.4745 89.976 -72.41 66.8155C-67.1858 92.0057 -60.9168 111.561 -60.9168 111.561C-60.9168 111.561 -62.5885 82.7252 -62.2228 49.3592C-45.9415 26.1013 -22.3158 9.7846 4.36849 3.36901C31.0527 -3.04657 59.0278 0.863952 83.2188 14.3912C69.2484 20.5819 55.6719 27.723 42.5746 35.7697C28.9917 25.329 18.6477 18.4791 17.8119 17.9267C18.491 18.7001 25.9617 27.152 36.2533 39.6366C23.7675 47.4809 15.0431 53.668 13.6848 54.6623C14.9908 54.2204 25.7004 50.243 40.8506 45.2713C62.322 71.8425 92.2567 111.561 100.197 136.751C100.511 138.574 101.033 140.342 101.765 142.165Z" fill="#EAECFB"/>
<path d="M143.872 121.341C143.897 139.165 140.167 156.772 132.954 172.882C130.375 158.018 126.076 143.547 120.155 129.793C124.752 122.612 127.573 117.861 127.886 117.309C127.416 117.75 124.021 121.12 118.587 126.313C114.299 116.964 109.556 107.855 104.378 99.0235C92.7276 78.805 69.7412 57.7028 50.3594 42.1246C66.032 37.2081 84.4734 31.8496 102.183 27.9275C115.239 39.2635 125.751 53.5237 132.96 69.6781C140.17 85.8326 143.897 103.478 143.872 121.341Z" fill="#EAECFB"/>
<path d="M102.654 214.312C87.7684 227.417 69.984 236.318 50.9626 240.182C31.9412 244.047 12.3038 242.748 -6.11426 236.409C14.2823 230.6 33.6786 221.408 51.3519 209.175C70.0023 197.132 89.4363 173.709 104.116 153.546C107.092 173.729 106.597 194.315 102.654 214.312Z" fill="#EAECFB"/>
</svg>
