<svg width="45" height="45" viewBox="0 0 45 45" fill="none" xmlns="http://www.w3.org/2000/svg">
<path d="M0.517578 14.2955C3.66865 10.8622 9.96064 7.23179 16.8625 10.6236C19.3021 11.8164 21.6399 13.0197 23.9982 14.171C27.3119 15.7891 30.6561 17.3139 34.3052 18.569C41.5832 21.0791 44.3988 16.6604 44.3988 16.6604C41.817 7.1903 32.7907 0.199219 22.0567 0.199219C12.2375 0.199219 3.84145 6.04932 0.517578 14.2955Z" fill="url(#paint0_linear)"/>
<path fill-rule="evenodd" clip-rule="evenodd" d="M0.517457 14.2838C-0.0822642 15.6322 1.70673 17.074 3.15013 17.4786C10.4993 19.5323 18.316 16.3998 23.7643 14.0452C21.4264 12.9043 19.2714 11.7944 16.8624 10.6119C9.96052 7.22012 3.66853 10.8505 0.517457 14.2838Z" fill="#44AEE4"/>
<path d="M42.203 32.9246C38.2997 39.7808 30.8083 44.1995 22.0564 44.1995C12.9488 44.1995 5.07111 39.1688 1.32031 31.8666C11.8408 39.7808 21.1314 34.9783 31.6011 30.2899C39.6313 26.6595 42.203 32.9246 42.203 32.9246Z" fill="url(#paint1_linear)"/>
<path fill-rule="evenodd" clip-rule="evenodd" d="M16.7403 35.7582C11.7799 36.6191 6.5145 35.9553 1.32031 31.8581C5.84363 25.8006 13.2131 32.9472 16.7403 35.7582Z" fill="#44AEE4"/>
<path fill-rule="evenodd" clip-rule="evenodd" d="M15.1952 27.2206H17.5127L13.9652 20.7793H6.65678C4.0851 20.7793 2.9873 22.1796 2.9873 24.0881C2.9873 25.9967 4.45103 27.1688 6.35184 27.1999L13.8534 27.2206L12.5727 25.0217H6.60596C6.60596 25.0217 5.25405 25.1461 5.25405 23.974C5.25405 22.9264 6.59579 22.9886 6.63645 22.9886H12.7861L15.1952 27.2206Z" fill="#3D2F88"/>
<path fill-rule="evenodd" clip-rule="evenodd" d="M31.8249 27.2525H34.5796L37.009 22.2114C37.009 22.2114 37.507 20.8008 35.7994 20.8008H30.1376C30.1376 20.8008 29.914 20.8008 29.2939 20.8008C27.82 20.8008 26.9459 20.9045 26.1835 22.2426L23.5 27.2525H26.1632L27.82 24.0163C28.3588 23.062 28.3994 22.979 29.1618 22.979C29.609 22.979 29.7717 22.9686 29.7615 22.9998L27.7895 27.2525H30.4527L31.9774 24.0266C32.2417 23.5184 32.384 22.9583 33.3192 22.9583C33.5225 22.9479 33.7156 22.9583 33.9189 22.979L31.8249 27.2525Z" fill="#3D2F88"/>
<path fill-rule="evenodd" clip-rule="evenodd" d="M15.236 20.5283L16.4456 21.0988L20.0846 27.2186H21.0299L25.4312 21.1403L27.3117 20.2483L25.2686 20.2379H25.0856L20.6843 24.2209L16.9538 20.1756L14.4736 20.1445L15.236 20.5283Z" fill="#E42018"/>
<path fill-rule="evenodd" clip-rule="evenodd" d="M21.1727 19.3361C20.4611 19.3568 19.9021 19.9584 19.9224 20.6845C19.9427 21.4106 20.5323 21.9811 21.2438 21.9603C21.9452 21.9396 22.4941 21.3587 22.4941 20.643C22.4839 19.9169 21.8944 19.3257 21.1727 19.3361Z" fill="#E42018"/>
<defs>
<linearGradient id="paint0_linear" x1="7.03776" y1="3.85859" x2="41.8508" y2="20.0134" gradientUnits="userSpaceOnUse">
<stop stop-color="#AFDBF6"/>
<stop offset="0.0917069" stop-color="#9FB2DB"/>
<stop offset="0.22" stop-color="#8B7FBA"/>
<stop offset="0.3319" stop-color="#7C59A2"/>
<stop offset="0.4219" stop-color="#734293"/>
<stop offset="0.4787" stop-color="#703A8E"/>
<stop offset="0.6297" stop-color="#643E91"/>
<stop offset="0.9045" stop-color="#434899"/>
<stop offset="1" stop-color="#364C9C"/>
</linearGradient>
<linearGradient id="paint1_linear" x1="1.31726" y1="36.6733" x2="42.204" y2="36.6733" gradientUnits="userSpaceOnUse">
<stop stop-color="#AFDBF6"/>
<stop offset="0.0917069" stop-color="#9FB2DB"/>
<stop offset="0.22" stop-color="#8B7FBA"/>
<stop offset="0.3319" stop-color="#7C59A2"/>
<stop offset="0.4219" stop-color="#734293"/>
<stop offset="0.4787" stop-color="#703A8E"/>
<stop offset="0.6297" stop-color="#643E91"/>
<stop offset="0.9045" stop-color="#434899"/>
<stop offset="1" stop-color="#364C9C"/>
</linearGradient>
</defs>
</svg>
