<svg width="73" height="73" viewBox="0 0 73 73" fill="none" xmlns="http://www.w3.org/2000/svg">
<path d="M36.3472 68.1445C27.9928 68.1445 19.9807 64.8258 14.0733 58.9184C8.16591 53.011 4.84717 44.9989 4.84717 36.6445C4.84717 28.2902 8.16591 20.2781 14.0733 14.3707C19.9807 8.46327 27.9928 5.14453 36.3472 5.14453C44.7015 5.14453 52.7136 8.46327 58.621 14.3707C64.5284 20.2781 67.8472 28.2902 67.8472 36.6445C67.8472 44.9989 64.5284 53.011 58.621 58.9184C52.7136 64.8258 44.7015 68.1445 36.3472 68.1445ZM36.3472 72.6445C45.895 72.6445 55.0517 68.8517 61.803 62.1004C68.5543 55.3491 72.3472 46.1923 72.3472 36.6445C72.3472 27.0967 68.5543 17.94 61.803 11.1887C55.0517 4.43738 45.895 0.644531 36.3472 0.644531C26.7994 0.644531 17.6426 4.43738 10.8913 11.1887C4.14001 17.94 0.347168 27.0967 0.347168 36.6445C0.347168 46.1923 4.14001 55.3491 10.8913 62.1004C17.6426 68.8517 26.7994 72.6445 36.3472 72.6445Z" fill="white" fill-opacity="0.87"/>
<path d="M28.5667 23.3903C28.9347 23.2007 29.3479 23.1164 29.7607 23.1466C30.1736 23.1768 30.5701 23.3203 30.9067 23.5613L46.6567 34.8113C46.9483 35.0194 47.1861 35.2942 47.3501 35.6127C47.5141 35.9313 47.5997 36.2844 47.5997 36.6428C47.5997 37.0011 47.5141 37.3542 47.3501 37.6728C47.1861 37.9913 46.9483 38.2661 46.6567 38.4743L30.9067 49.7243C30.5702 49.9651 30.1739 50.1084 29.7612 50.1386C29.3486 50.1688 28.9356 50.0846 28.5677 49.8953C28.1998 49.706 27.8913 49.4189 27.6759 49.0656C27.4606 48.7123 27.3468 48.3065 27.3472 47.8928V25.3928C27.3467 24.9791 27.4603 24.5734 27.6755 24.2201C27.8906 23.8668 28.199 23.5797 28.5667 23.3903Z" fill="white" fill-opacity="0.87"/>
</svg>
