<svg xmlns="http://www.w3.org/2000/svg" xmlns:xlink="http://www.w3.org/1999/xlink" viewBox="0 0 119.24 122.64">
  <defs>
    <style>
      .cls-1 {
        fill: url(#Безымянный_градиент_30);
      }

      .cls-2 {
        fill: #fff;
      }

      .cls-3 {
        fill: #2d2e83;
      }

      .cls-4 {
        fill: url(#Безымянный_градиент_10);
      }

      .cls-5 {
        fill: url(#Безымянный_градиент_105);
      }

      .cls-6 {
        fill: none;
      }

      .cls-7 {
        fill: url(#Безымянный_градиент_128);
      }

      .cls-8 {
        fill: url(#Безымянный_градиент_68);
      }

      .cls-9 {
        fill: url(#Безымянный_градиент_88);
      }

      .cls-10 {
        fill: url(#Безымянный_градиент_44);
      }

      .cls-11 {
        fill: #1d1d1b;
      }
    </style>
    <linearGradient id="Безымянный_градиент_30" data-name="Безымянный градиент 30" x1="26.25" y1="30.64" x2="96.95" y2="94.29" gradientUnits="userSpaceOnUse">
      <stop offset="0" stop-color="#cecdcc"/>
      <stop offset="0.48" stop-color="#f1f1f1"/>
      <stop offset="1" stop-color="#bcbcbb"/>
    </linearGradient>
    <linearGradient id="Безымянный_градиент_10" data-name="Безымянный градиент 10" x1="108.94" y1="56.8" x2="63.15" y2="56.41" gradientUnits="userSpaceOnUse">
      <stop offset="0" stop-color="#d5046a"/>
      <stop offset="1" stop-color="#6c2480"/>
    </linearGradient>
    <linearGradient id="Безымянный_градиент_105" data-name="Безымянный градиент 105" x1="62.5" y1="80.77" x2="54.14" y2="46.67" gradientUnits="userSpaceOnUse">
      <stop offset="0" stop-color="#1b92d1"/>
      <stop offset="1" stop-color="#83cae6"/>
    </linearGradient>
    <linearGradient id="Безымянный_градиент_128" data-name="Безымянный градиент 128" x1="78.34" y1="52.44" x2="98.36" y2="72.29" gradientUnits="userSpaceOnUse">
      <stop offset="0" stop-color="#e66581"/>
      <stop offset="1" stop-color="#f7b023"/>
    </linearGradient>
    <linearGradient id="Безымянный_градиент_68" data-name="Безымянный градиент 68" x1="95.77" y1="42.4" x2="84.51" y2="23.1" gradientUnits="userSpaceOnUse">
      <stop offset="0" stop-color="#932384"/>
      <stop offset="1" stop-color="#db5f91"/>
    </linearGradient>
    <linearGradient id="Безымянный_градиент_88" data-name="Безымянный градиент 88" x1="26.9" y1="51.08" x2="52.95" y2="63.3" gradientUnits="userSpaceOnUse">
      <stop offset="0" stop-color="#f08113"/>
      <stop offset="1" stop-color="#da1061"/>
    </linearGradient>
    <linearGradient id="Безымянный_градиент_44" data-name="Безымянный градиент 44" x1="38.98" y1="4.18" x2="64.92" y2="52.42" gradientUnits="userSpaceOnUse">
      <stop offset="0" stop-color="#932384"/>
      <stop offset="0.51" stop-color="#4e6fb5"/>
      <stop offset="1" stop-color="#2b8dcb"/>
    </linearGradient>
  </defs>
  <g id="Слой_2" data-name="Слой 2">
    <g id="Слой_1-2" data-name="Слой 1">
      <path class="cls-1" d="M109.37,62.46c0,1.34-.06,2.69-.17,4S109,69,108.74,70.2a.23.23,0,0,1,0,.07c-.12.75-.26,1.5-.42,2.24a47.79,47.79,0,0,1-46.72,37.72h-.13c-1.07,0-2.13,0-3.19-.12A47.77,47.77,0,0,1,14,67c-.14-1.44-.21-2.91-.21-4.37v-.13A47.77,47.77,0,0,1,39.9,19.88c1-.48,1.91-.95,2.89-1.36h0a46.56,46.56,0,0,1,7.29-2.44c1.23-.3,2.48-.56,3.75-.77a48.12,48.12,0,0,1,7.74-.63,47.62,47.62,0,0,1,24.17,6.56c1,.6,2,1.23,3,1.88a48.86,48.86,0,0,1,7.88,6.82c.8.86,1.56,1.74,2.29,2.66A47.58,47.58,0,0,1,109.37,62.46Z"/>
      <g>
        <path class="cls-2" d="M58,110.23,49.79,69,10.1,62.78,44.55,43.09,35.86,0,67.94,29.62,84.5,20,103.66,8.94,88.27,48.48l20.86,18.85c-.18,3.29-2.66,20.34-16.67,31.6C75.13,112.84,58.34,110.25,58,110.23Z"/>
        <path class="cls-3" d="M106.76,67.84c-.12.75-.26,1.49-.42,2.23A47.79,47.79,0,0,1,59.62,107.8h-.13l-1.33-6.5v0L52.54,74l-.13-.63-1.2-5.83L15.12,61.85,46.45,44,40.82,16.08,38.54,4.78l9.59,8.85L67.7,31.7l19-11,13.6-7.86L94.63,27.5,86.3,48.87l0,.08Z"/>
        <path class="cls-4" d="M106.77,67.76a.25.25,0,0,1,0,.08c-.12.75-.26,1.49-.42,2.23-4.61,21.56-22.16,38.14-46.72,37.73h-.09l-1.36-6.61v0L46.53,44h0L40.84,16.07,38.54,4.78l9.59,8.85L67.7,31.7,86.3,48.87Z"/>
        <polygon class="cls-5" points="64.92 52 58.13 101.56 46.47 43.96 64.92 52"/>
        <polygon class="cls-6" points="67.7 31.7 64.92 52 46.47 43.96 38.54 4.78 67.7 31.7"/>
        <polygon class="cls-6" points="46.45 43.95 38.54 4.78 46.47 43.96 46.45 43.95"/>
        <path class="cls-7" d="M106.77,67.76a.25.25,0,0,1,0,.08c-.12.75-.26,1.49-.42,2.23L84.18,60.4l-8.8-3.83L64.92,52l1.86-13.6.92-6.71L86.3,48.87Z"/>
        <polygon class="cls-8" points="100.35 12.81 86.27 48.95 67.7 31.7 100.35 12.81"/>
        <polygon class="cls-9" points="15.12 61.85 46.45 43.95 51.21 67.5 15.12 61.85"/>
        <polygon class="cls-10" points="38.54 4.78 46.45 43.95 64.92 52 67.7 31.7 38.54 4.78"/>
        <path class="cls-2" d="M66.78,38.4q-.5,4.76-1.09,9.5l-1.23,9.47L63.1,66.83q-.7,4.73-1.51,9.43.49-4.76,1.09-9.49l1.24-9.47,1.36-9.46Q66,43.11,66.78,38.4Z"/>
        <path class="cls-2" d="M84.18,60.4q-4.4-1.74-8.74-3.57l-8.69-3.71-8.64-3.83q-4.3-1.93-8.58-4,4.39,1.74,8.75,3.57L67,52.61l8.63,3.83C78.48,57.73,81.33,59.05,84.18,60.4Z"/>
      </g>
      <g>
        <path class="cls-11" d="M11.7,38.15l-5.45-3,.32-.57,4.95,2.72,1.89-3.45L8.46,31.14l.31-.56,5.45,3Z"/>
        <path class="cls-11" d="M7.14,43.55c-1.22-.49-1.61-1.68-1-3.15l.62-1.55-1.82-.73.25-.61,5.76,2.32L10.07,42C9.48,43.46,8.38,44.05,7.14,43.55Zm.25-.61c.92.37,1.69,0,2.16-1.18l.61-1.53L7.28,39.07,6.66,40.6C6.2,41.76,6.48,42.58,7.39,42.94Z"/>
        <path class="cls-11" d="M8.79,45.38,8.62,46l-5-1.34,3.94,5.18-.15.58-6-1.62.17-.62,5,1.33L2.63,44.35l.15-.58Z"/>
        <path class="cls-11" d="M2.09,55.54C1,55.38.49,54.14.68,52.86A3.65,3.65,0,0,1,1.81,50.7l.43.31a3.07,3.07,0,0,0-1,1.86c-.14,1,.2,1.91,1,2s1.2-.43,1.35-1.44l.19-1.31.53.07L4.16,53.5C4,54.37,4.34,54.94,5,55s1.28-.57,1.41-1.46a3.32,3.32,0,0,0-.25-1.81l.57-.14a4,4,0,0,1,.25,2c-.18,1.23-1,2.17-2,2a1.38,1.38,0,0,1-1.2-1.24A1.55,1.55,0,0,1,2.09,55.54Z"/>
        <path class="cls-11" d="M.57,61.76l-.57,0,.2-4.39,6.2.28-.19,4.26-.57,0,.16-3.6-2.2-.1-.15,3.21-.55,0L3,58.13.73,58Z"/>
        <path class="cls-11" d="M4.39,68.19c-1.32.08-2.18-.83-2.27-2.41L2,64.11l-2,.11,0-.65,6.2-.36.14,2.32C6.46,67.11,5.72,68.11,4.39,68.19Zm0-.66c1-.06,1.52-.74,1.45-2L5.7,63.9l-3.1.18.1,1.65C2.77,67,3.38,67.59,4.35,67.53Z"/>
        <path class="cls-11" d="M4.18,74.18l-.3-1.39-2.79.59L1,72.76,7,71.46l.13.62-2.73.59.3,1.39,3.17,1.47.15.69L4.62,74.6,2,77.66l-.16-.74Z"/>
        <path class="cls-11" d="M5.18,77.56a3.14,3.14,0,0,1,4.05,2.07,3.11,3.11,0,0,1-1.93,4.1,3.13,3.13,0,0,1-4-2A3.14,3.14,0,0,1,5.18,77.56Zm1.91,5.55a2.52,2.52,0,0,0,1.59-3.29,2.53,2.53,0,0,0-3.29-1.64,2.61,2.61,0,0,0,1.7,4.93Z"/>
        <path class="cls-11" d="M13.1,88.57,7.55,91.34l-.29-.58,2.56-1.28L8.08,86,5.52,87.29l-.29-.59,5.55-2.78.29.59L8.6,85.75l1.73,3.47L12.81,88Z"/>
        <path class="cls-11" d="M12.36,93.71l-.78-1.19L9.2,94.09l-.35-.54L14,90.14l.35.53L12.06,92.2l.78,1.19,3.49.23.39.59-3.79-.27-1.33,3.8-.41-.63Z"/>
        <path class="cls-11" d="M20.4,98.71l-5.83,1.13a1.81,1.81,0,0,1-1.86-.53,1.92,1.92,0,0,1-.35-.7l.53-.19a1.4,1.4,0,0,0,.27.53,1.13,1.13,0,0,0,1.15.35l.35,0,2.1-5,.45.55-1.89,4.34,4.67-1Z"/>
        <path class="cls-11" d="M22.94,104.2c-.93.94-2.17.84-3.3-.27l-1.18-1.17-1.38,1.4-.47-.46L21,99.28l1.66,1.63C23.75,102,23.87,103.26,22.94,104.2Zm-.47-.46c.7-.7.63-1.57-.26-2.44L21,100.14l-2.18,2.21L20,103.51C20.92,104.38,21.79,104.44,22.47,103.74Z"/>
        <path class="cls-11" d="M23,105.56a3.12,3.12,0,0,1,4.51-.47,3.06,3.06,0,0,1,1.23,2.12l-.59.07a2.45,2.45,0,0,0-1-1.71,2.57,2.57,0,1,0-3.18,4,2.42,2.42,0,0,0,1.9.55l.07.59a3,3,0,0,1-2.35-.7A3.11,3.11,0,0,1,23,105.56Z"/>
        <path class="cls-11" d="M31.08,113l-2.94-1.82-1.51,1-.58-.36,5.69-3.78.55.35-.86,6.77-.59-.36Zm.08-.58.49-3.62-3,2Z"/>
        <path class="cls-11" d="M49.77,120c-.24,1-1.11,1.46-2.57,1.12l-2.68-.63,1.42-6,2.51.59c1.27.3,1.93,1,1.7,2a1.44,1.44,0,0,1-1.31,1.15A1.46,1.46,0,0,1,49.77,120Zm-.62-.19c.19-.79-.27-1.27-1.29-1.51l-2-.48-.54,2.31,2,.48C48.34,120.84,49,120.59,49.15,119.8Zm-3.22-2.48,1.85.43c.92.22,1.54,0,1.71-.77s-.27-1.24-1.19-1.46l-1.85-.43Z"/>
        <path class="cls-11" d="M56.79,118.45c-.16,1.32-1.2,2-2.77,1.82l-1.66-.2-.22,2-.66-.07.72-6.18,2.31.27C56.08,116.22,56.94,117.13,56.79,118.45Zm-.66-.07c.12-1-.47-1.63-1.7-1.78l-1.64-.19-.36,3.09,1.64.19C55.3,119.83,56,119.35,56.13,118.38Z"/>
        <path class="cls-11" d="M64.57,116.33l.09,6.21H64l-.08-5-2.37,4.22h-.31l-2.51-4.12.08,4.94h-.63l-.1-6.21h.54L61.42,121l2.6-4.65Z"/>
        <path class="cls-11" d="M66.31,118.93l2.31-.28.06.55-2.31.27Z"/>
        <path class="cls-11" d="M74.86,114.57l1.33,6.07-.63.14-1.21-5.51-3.84.83,1.21,5.52-.64.13-1.32-6.06Z"/>
        <path class="cls-11" d="M81.92,114.44c.44,1.25-.2,2.32-1.69,2.84l-1.58.55.65,1.85-.62.22L76.63,114l2.2-.76C80.32,112.75,81.48,113.18,81.92,114.44Zm-.62.22c-.32-.94-1.13-1.26-2.3-.85l-1.56.54,1,2.94,1.56-.55C81.19,116.33,81.63,115.58,81.3,114.66Z"/>
        <path class="cls-11" d="M83.2,115a3.26,3.26,0,1,1,4.32,1.38A3.13,3.13,0,0,1,83.2,115Zm5.25-2.6a2.61,2.61,0,1,0-1.19,3.46A2.51,2.51,0,0,0,88.45,112.39Z"/>
        <path class="cls-11" d="M95.53,110.91l.31.47-3.68,2.4-3.39-5.2,3.56-2.33.31.48-3,2,1.2,1.85,2.7-1.76.3.47L91.14,111,92.4,113Z"/>
        <path class="cls-11" d="M97.13,106.74l-1.09.9,1.8,2.2-.5.41-3.93-4.81.5-.4,1.76,2.15,1.1-.9-.14-3.48.55-.45.13,3.79,3.91.93-.59.48Z"/>
        <path class="cls-11" d="M101.08,99.26l-1.55,1.54,4,4-.46.46-4-4-1.55,1.54-.4-.4,3.56-3.54Z"/>
        <path class="cls-11" d="M105.63,93.63l-2,2.62,4.47,3.44-.39.52-4.92-3.81,2.42-3.12Z"/>
        <path class="cls-11" d="M107.57,95.34A3.26,3.26,0,1,1,112,94.26,3.13,3.13,0,0,1,107.57,95.34Zm3.13-5a2.61,2.61,0,1,0,.79,3.57A2.52,2.52,0,0,0,110.7,90.38Z"/>
        <path class="cls-11" d="M116.42,84.37l1.78.83-.26.55-1.26-.58-2.28,4.91,1.26.59-.26.56-1.77-.84.13-.28c.32-.82-1-1.67-2.81-2.56l-1.8-.92,1.77-3.79L116,85.21Zm-2.27,4.9,1.61-3.47-4.6-2.14-1.25,2.7,1.34.68C112.69,87.77,114,88.54,114.15,89.27Z"/>
        <path class="cls-11" d="M117.22,78.55l-1.07,3.29,1.35,1.22-.21.65-5-4.61.2-.62,6.78-.78-.22.65Zm-.58.07L113,79l2.72,2.44Z"/>
      </g>
      <circle class="cls-11" cx="37.93" cy="114.72" r="0.85"/>
      <g>
        <path class="cls-2" d="M77.68,90.3,78,91a31,31,0,0,1-4,1.5l-.18-.58a24.09,24.09,0,0,0,1.45-2.47c.33-.61.3-.91.19-1.16-.16-.42-.56-.53-1.14-.32a1.54,1.54,0,0,0-1,.89l-.79-.27a2.53,2.53,0,0,1,1.55-1.38c1-.38,1.86-.18,2.21.62a1.82,1.82,0,0,1-.2,1.76c-.35.69-.54,1-.93,1.7C76.23,90.93,76.72,90.73,77.68,90.3Z"/>
        <path class="cls-2" d="M77.5,88.54a2.24,2.24,0,1,1,3.91-2.13,2.25,2.25,0,1,1-3.91,2.13Zm3.06-1.61c-.6-1-1.29-1.25-1.9-.91s-.79,1-.26,2.08,1.24,1.32,1.91,1S81.16,88,80.56,86.93Z"/>
        <path class="cls-2" d="M86.12,85.07l.49.6a31.74,31.74,0,0,1-3.39,2.49l-.33-.51c.34-1.11.49-1.66.73-2.76.14-.67,0-1-.14-1.17s-.68-.36-1.18,0a1.51,1.51,0,0,0-.69,1.11l-.83,0A2.51,2.51,0,0,1,81.89,83c.87-.64,1.75-.67,2.29,0a1.79,1.79,0,0,1,.28,1.75c-.15.75-.24,1.13-.43,1.88C84.89,86.07,85.3,85.75,86.12,85.07Z"/>
        <path class="cls-2" d="M85.47,83.43a2.25,2.25,0,1,1,3.21-3.12,2.26,2.26,0,1,1-3.21,3.12ZM88,81c-.86-.82-1.58-.84-2.09-.36s-.48,1.21.31,2.09,1.55.93,2.1.4S88.85,81.86,88,81Z"/>
      </g>
    </g>
  </g>
</svg>
