<svg width="155" height="155" viewBox="0 0 155 155" fill="none" xmlns="http://www.w3.org/2000/svg">
<mask id="path-1-inside-1" fill="white">
<path fill-rule="evenodd" clip-rule="evenodd" d="M77.6837 0.445312C70.0421 0.445312 63.8474 6.64006 63.8474 14.2817V56.6358L20.4409 35.7442C14.0722 32.6789 5.99422 35.1267 2.39818 41.2115C-1.19787 47.2963 1.04982 54.7139 7.41852 57.7792L48.2819 77.4468L7.41859 97.1144C1.04989 100.18 -1.1978 107.597 2.39824 113.682C5.99428 119.767 14.0723 122.215 20.441 119.149L63.8474 98.2579V140.609C63.8474 148.251 70.0421 154.445 77.6837 154.445C85.3253 154.445 91.52 148.251 91.52 140.609V98.2574L134.927 119.149C141.296 122.215 149.374 119.767 152.97 113.682C156.566 107.597 154.318 100.18 147.95 97.1144L107.086 77.4468L147.95 57.7792C154.319 54.7139 156.566 47.2963 152.97 41.2115C149.374 35.1267 141.296 32.6789 134.927 35.7442L91.52 56.6362V14.2816C91.52 6.64005 85.3253 0.445312 77.6837 0.445312Z"/>
</mask>
<path d="M63.8474 56.6358L62.98 58.4379L65.8474 59.818V56.6358H63.8474ZM20.4409 35.7442L19.5736 37.5463L20.4409 35.7442ZM2.39818 41.2115L4.11997 42.2291H4.11997L2.39818 41.2115ZM7.41852 57.7792L6.55116 59.5813L7.41852 57.7792ZM48.2819 77.4468L49.1493 79.249L52.8936 77.4468L49.1493 75.6447L48.2819 77.4468ZM7.41859 97.1144L6.55122 95.3123H6.55122L7.41859 97.1144ZM20.441 119.149L19.5736 117.347L20.441 119.149ZM63.8474 98.2579H65.8474V95.0757L62.98 96.4557L63.8474 98.2579ZM91.52 98.2574L92.3874 96.4553L89.52 95.0752V98.2574H91.52ZM134.927 119.149L135.795 117.347L134.927 119.149ZM152.97 113.682L151.248 112.665V112.665L152.97 113.682ZM147.95 97.1144L148.817 95.3123L147.95 97.1144ZM107.086 77.4468L106.219 75.6447L102.475 77.4468L106.219 79.249L107.086 77.4468ZM147.95 57.7792L147.082 55.9771L147.95 57.7792ZM152.97 41.2115L151.248 42.2291L152.97 41.2115ZM134.927 35.7442L135.795 37.5463L134.927 35.7442ZM91.52 56.6362H89.52V59.8185L92.3874 58.4384L91.52 56.6362ZM65.8474 14.2817C65.8474 7.74463 71.1467 2.44531 77.6837 2.44531V-1.55469C68.9375 -1.55469 61.8474 5.53549 61.8474 14.2817H65.8474ZM65.8474 56.6358V14.2817H61.8474V56.6358H65.8474ZM19.5736 37.5463L62.98 58.4379L64.7147 54.8336L21.3083 33.9421L19.5736 37.5463ZM4.11997 42.2291C7.18759 37.0384 14.1407 34.9315 19.5736 37.5463L21.3083 33.9421C14.0038 30.4264 4.80085 33.215 0.676383 40.194L4.11997 42.2291ZM8.28589 55.9771C2.97297 53.4199 1.12007 47.3052 4.11997 42.2291L0.676384 40.194C-3.5158 47.2875 -0.873334 56.0079 6.55116 59.5813L8.28589 55.9771ZM49.1493 75.6447L8.28589 55.9771L6.55116 59.5813L47.4146 79.249L49.1493 75.6447ZM8.28596 98.9166L49.1493 79.249L47.4146 75.6447L6.55122 95.3123L8.28596 98.9166ZM4.12004 112.665C1.12014 107.588 2.97304 101.474 8.28596 98.9166L6.55122 95.3123C-0.873269 98.8857 -3.51574 107.606 0.676449 114.7L4.12004 112.665ZM19.5736 117.347C14.1408 119.962 7.18766 117.855 4.12004 112.665L0.676449 114.7C4.80091 121.679 14.0038 124.467 21.3084 120.952L19.5736 117.347ZM62.98 96.4557L19.5736 117.347L21.3084 120.952L64.7147 100.06L62.98 96.4557ZM65.8474 140.609V98.2579H61.8474V140.609H65.8474ZM77.6837 152.445C71.1467 152.445 65.8474 147.146 65.8474 140.609H61.8474C61.8474 149.355 68.9375 156.445 77.6837 156.445V152.445ZM89.52 140.609C89.52 147.146 84.2207 152.445 77.6837 152.445V156.445C86.4299 156.445 93.52 149.355 93.52 140.609H89.52ZM89.52 98.2574V140.609H93.52V98.2574H89.52ZM135.795 117.347L92.3874 96.4553L90.6527 100.06L134.06 120.952L135.795 117.347ZM151.248 112.665C148.181 117.855 141.228 119.962 135.795 117.347L134.06 120.952C141.365 124.467 150.567 121.679 154.692 114.7L151.248 112.665ZM147.082 98.9166C152.395 101.474 154.248 107.588 151.248 112.665L154.692 114.7C158.884 107.606 156.242 98.8857 148.817 95.3123L147.082 98.9166ZM106.219 79.249L147.082 98.9166L148.817 95.3123L107.954 75.6447L106.219 79.249ZM147.082 55.9771L106.219 75.6447L107.954 79.249L148.817 59.5813L147.082 55.9771ZM151.248 42.2291C154.248 47.3052 152.395 53.4199 147.082 55.9771L148.817 59.5813C156.242 56.0079 158.884 47.2875 154.692 40.194L151.248 42.2291ZM135.795 37.5463C141.228 34.9315 148.181 37.0384 151.248 42.2291L154.692 40.194C150.568 33.215 141.365 30.4264 134.06 33.9421L135.795 37.5463ZM92.3874 58.4384L135.795 37.5463L134.06 33.9421L90.6527 54.8341L92.3874 58.4384ZM89.52 14.2816V56.6362H93.52V14.2816H89.52ZM77.6837 2.44531C84.2207 2.44531 89.52 7.74462 89.52 14.2816H93.52C93.52 5.53548 86.4299 -1.55469 77.6837 -1.55469V2.44531Z" fill="#DEE1F9" mask="url(#path-1-inside-1)"/>
</svg>
